 
http://www.imdb.com/title/tt1408101/


After the crew of the Enterprise find an unstoppable force of terror from within their own organization, Captain Kirk leads a manhunt to a war-zone world to capture a one man weapon of mass destruction. 



Director:
 J.J. Abrams 

Writers:
 Roberto Orci, Alex Kurtzman

Stars:
 Chris Pine, Zachary Quinto, Zoe Saldana

Genres:
  Action |  Adventure |  Sci-Fi 

Country:
 USA 

Language:
 English | Klingon 





Format                                   : AVI
Format/Info                              : Audio Video Interleave
Format profile                           : OpenDML
Format settings                          : rec
File size                                : 1.27 GiB
Duration                                 : 2h 10mn
Overall bit rate                         : 1 398 Kbps
Writing application                      : AVI-Mux GUI 1.17.8.3, Feb 16 201019:42:50

Video
ID                                       : 0
Format                                   : MPEG-4 Visual
Format profile                           : Simple@L1
Format settings, BVOP                    : No
Format settings, QPel                    : No
Format settings, GMC                     : No warppoints
Format settings, Matrix                  : Default (H.263)
Codec ID                                 : XVID
Codec ID/Hint                            : XviD
Duration                                 : 2h 10mn
Bit rate                                 : 1 200 Kbps
Width                                    : 720 pixels
Height                                   : 304 pixels
Display aspect ratio                     : 16:9
Frame rate                               : 25.000 fps
Color space                              : YUV
Chroma subsampling                       : 4:2:0
Bit depth                                : 8 bits
Scan type                                : Progressive
Compression mode                         : Lossy
Bits/(Pixel*Frame)                       : 0.219
Stream size                              : 1.09 GiB (86%)
Writing library                          : Lavc52.66.0

Audio
ID                                       : 1
Format                                   : AC-3
Format/Info                              : Audio Coding 3
Mode extension                           : CM (complete main)
Format settings, Endianness              : Big
Codec ID                                 : 2000
Duration                                 : 2h 10mn
Bit rate mode                            : Constant
Bit rate                                 : 192 Kbps
Channel(s)                               : 2 channels
Channel positions                        : Front: L R
Sampling rate                            : 48.0 KHz
Bit depth                                : 16 bits
Compression mode                         : Lossy
Stream size                              : 179 MiB (14%)
Alignment                                : Aligned on interleaves
Interleave, duration                     : 64 ms (1.60 video frames)
Interleave, preload duration             : 192 ms
Title                                    : Star Trek-audio


info
 
http://addpix.net/viewer.php?file=52506647984004253985.png




screens


    	http://addpix.net/viewer.php?file=41335256331555601569.jpg
    	http://addpix.net/viewer.php?file=71282511361533568665.jpg
    	http://addpix.net/viewer.php?file=10696975521148876831.jpg
    	http://addpix.net/viewer.php?file=50737487000972438159.jpg
    	http://addpix.net/viewer.php?file=94630281979765140953.jpg